# xmcd CD database file
# Copyright (C) 1993-1996 Ti Kan
#
# Track frame offsets:
# 183
# 12083
# 24238
# 38625
# 49690
# 60585
# 71598
# 83873
# 97478
# 109368
# 119490
#
# Disc length: 1731 seconds
#
# Revision: 0
# Processed by: cddbd v1.4b41PL1 Copyright (c) Steve Scherf et al.
# Submitted via: inCDius 1.1b5
#
DISCID=9006c10b
DTITLE=Hank Williams Jr. - Hank Williams Jr. - Greatest Hits
DYEAR=1900
DGENRE=
TTITLE0=It's All Over But The Cryin'
TTITLE1=Cajun Baby
TTITLE2=Standing In The Shadows
TTITLE3=Homesick
TTITLE4=Where Do I Go From Here
TTITLE5=Try, Try Again
TTITLE6=I'd Rather Be Gone
TTITLE7=A Baby Again
TTITLE8=Are You Lonely Too
TTITLE9=Rock In My Shoe
TTITLE10=My Heart Won't Let Me Go
EXTD=
EXTT0=
EXTT1=
EXTT2=
EXTT3=
EXTT4=
EXTT5=
EXTT6=
EXTT7=
EXTT8=
EXTT9=
EXTT10=
PLAYORDER=
